<svg id="Layer_1" data-name="Layer 1" xmlns="http://www.w3.org/2000/svg" viewBox="0 0 2560 453.76"><defs><style>.cls-1{fill:#ffba5f;}.cls-11,.cls-13,.cls-2,.cls-7,.cls-8{fill:none;}.cls-2{stroke:#97ffd0;stroke-width:0.48px;}.cls-11,.cls-13,.cls-2,.cls-8{stroke-miterlimit:10;}.cls-3{fill:#e8e8e8;}.cls-4{fill:#ccc;}.cls-5{fill:#fc2929;}.cls-6{fill:#fff;}.cls-11,.cls-8{stroke:#161d26;}.cls-8{stroke-width:0.63px;}.cls-9{fill:#161d26;}.cls-10{fill:#5ad1aa;}.cls-11{stroke-width:0.75px;}.cls-12{fill:#ff0;}.cls-13{stroke:#93e5bc;stroke-width:0.2px;}</style></defs><rect class="cls-1" x="2241.64" y="220.53" width="3.21" height="4.51" rx="1.61"/><line class="cls-2" x1="2243.25" y1="206.53" x2="2243.25" y2="225.04"/><path class="cls-3" d="M2221.06,339.37h51.67a3,3,0,0,1,3,3v0a0,0,0,0,1,0,0h-57.58a0,0,0,0,1,0,0v0a3,3,0,0,1,3-3Z"/><polygon class="cls-4" points="2267.06 210.07 2226.73 210.07 2221.46 339.46 2272.33 339.46 2267.06 210.07"/><polygon class="cls-4" points="2267.43 207.08 2226.36 207.08 2227.9 178.56 2265.89 178.56 2267.43 207.08"/><polygon class="cls-5" points="2270.69 299.16 2223.11 299.16 2224.73 259.28 2269.06 259.28 2270.69 299.16"/><polygon class="cls-5" points="2267.91 230.77 2225.89 230.77 2226.73 209.88 2267.06 209.88 2267.91 230.77"/><polygon class="cls-5" points="2272.23 339.37 2221.46 339.37 2221.94 327.67 2271.85 327.67 2272.23 339.37"/><path class="cls-6" d="M2246.9,317h0a6.59,6.59,0,0,1,6.59,6.59v15.8a0,0,0,0,1,0,0H2240.3a0,0,0,0,1,0,0v-15.8A6.59,6.59,0,0,1,2246.9,317Z"/><path class="cls-6" d="M2247,274.77h0a6.59,6.59,0,0,1,6.59,6.59v9.11a0,0,0,0,1,0,0h-13.19a0,0,0,0,1,0,0v-9.11A6.59,6.59,0,0,1,2247,274.77Z"/><path class="cls-7" d="M2247,274.77h0a6.59,6.59,0,0,1,6.59,6.59v9.11a0,0,0,0,1,0,0h-13.19a0,0,0,0,1,0,0v-9.11A6.59,6.59,0,0,1,2247,274.77Z"/><path class="cls-6" d="M2247,237.93h0a6.59,6.59,0,0,1,6.59,6.59v9.11a0,0,0,0,1,0,0h-13.19a0,0,0,0,1,0,0v-9.11A6.59,6.59,0,0,1,2247,237.93Z"/><path class="cls-5" d="M2247,130c-9.68,0-17.53,7.29-17.58,16.29h35.16C2264.53,137.24,2256.68,130,2247,130Z"/><polygon class="cls-8" points="2269.25 191.46 2224.44 191.46 2226.12 207.16 2267.57 207.16 2269.25 191.46"/><rect class="cls-9" x="2224.92" y="207.16" width="43.96" height="2.72" rx="1.36"/><rect class="cls-9" x="2227.85" y="146.24" width="38.1" height="2.72" rx="1.36"/><rect class="cls-9" x="2220.94" y="189.39" width="51.91" height="2.72" rx="1.36"/><rect class="cls-10" x="2239.11" y="253.73" width="15.77" height="1.63" rx="0.82"/><rect class="cls-10" x="2239.11" y="290.46" width="15.77" height="1.63" rx="0.82"/><rect class="cls-9" x="2226.59" y="175.97" width="40.61" height="2.72" rx="1.36"/><line class="cls-11" x1="2246.9" y1="191.46" x2="2246.9" y2="207.08"/><line class="cls-11" x1="2234.47" y1="191.51" x2="2236.24" y2="207.03"/><line class="cls-11" x1="2259.08" y1="191.51" x2="2257.31" y2="207.03"/><polygon class="cls-12" points="2242.85 166.94 0 166.72 0 155.08 2242.85 154.87 2242.85 166.94"/><rect class="cls-12" x="2241.64" y="151.82" width="12.39" height="20.35" rx="6.19"/><polygon class="cls-13" points="2264.16 148.97 2230.05 148.97 2228.7 176.02 2265.3 176.02 2264.16 148.97"/><polygon class="cls-12" points="2560 165.53 2251.03 165.34 2251.03 155.2 2560 155.01 2560 165.53"/></svg>